<svg width="1436" height="364" viewBox="0 0 1436 364" fill="none" xmlns="http://www.w3.org/2000/svg">
<path d="M531.516 223.562H513V109.344H577.455V125.125H531.516V160.828H574.565V176.688H531.516V223.562Z" fill="white"/>
<path d="M614.566 223.562H596.206V102H614.566V223.562Z" fill="white"/>
<path d="M717.538 180.203C717.538 194.318 713.918 205.333 706.678 213.25C699.439 221.167 689.36 225.125 676.443 225.125C668.37 225.125 661.234 223.302 655.036 219.656C648.838 216.01 644.072 210.776 640.739 203.953C637.405 197.13 635.739 189.214 635.739 180.203C635.739 166.193 639.332 155.255 646.52 147.391C653.708 139.526 663.838 135.594 676.912 135.594C689.412 135.594 699.308 139.63 706.6 147.703C713.892 155.724 717.538 166.557 717.538 180.203ZM654.645 180.203C654.645 200.151 662.015 210.125 676.756 210.125C691.339 210.125 698.631 200.151 698.631 180.203C698.631 160.464 691.287 150.594 676.599 150.594C668.891 150.594 663.292 153.146 659.802 158.25C656.364 163.354 654.645 170.672 654.645 180.203Z" fill="white"/>
<path d="M792.775 223.562L789.103 211.531H788.478C784.311 216.792 780.118 220.385 775.9 222.312C771.681 224.188 766.264 225.125 759.649 225.125C751.159 225.125 744.518 222.833 739.726 218.25C734.987 213.667 732.617 207.182 732.617 198.797C732.617 189.891 735.924 183.172 742.539 178.641C749.154 174.109 759.232 171.635 772.774 171.219L787.697 170.75V166.141C787.697 160.62 786.395 156.505 783.79 153.797C781.238 151.036 777.254 149.656 771.837 149.656C767.41 149.656 763.165 150.307 759.102 151.609C755.039 152.911 751.133 154.448 747.383 156.219L741.445 143.094C746.133 140.646 751.263 138.797 756.836 137.547C762.409 136.245 767.67 135.594 772.618 135.594C783.608 135.594 791.89 137.99 797.463 142.781C803.088 147.573 805.901 155.099 805.901 165.359V223.562H792.775ZM765.43 211.062C772.097 211.062 777.436 209.214 781.447 205.516C785.509 201.766 787.541 196.531 787.541 189.812V182.312L776.446 182.781C767.8 183.094 761.498 184.552 757.54 187.156C753.633 189.708 751.68 193.641 751.68 198.953C751.68 202.807 752.826 205.802 755.118 207.938C757.409 210.021 760.847 211.062 765.43 211.062Z" fill="white"/>
<path d="M863.715 210.281C868.194 210.281 872.674 209.578 877.153 208.172V222C875.122 222.885 872.491 223.615 869.262 224.188C866.085 224.812 862.777 225.125 859.34 225.125C841.943 225.125 833.245 215.958 833.245 197.625V151.062H821.448V142.938L834.105 136.219L840.355 117.938H851.683V137.156H876.294V151.062H851.683V197.312C851.683 201.74 852.777 205.021 854.965 207.156C857.204 209.24 860.121 210.281 863.715 210.281Z" fill="white"/>
<path d="M891.763 213.797C891.763 209.995 892.752 207.078 894.732 205.047C896.711 203.016 899.576 202 903.326 202C907.128 202 910.019 203.068 911.998 205.203C913.977 207.286 914.967 210.151 914.967 213.797C914.967 217.495 913.951 220.438 911.92 222.625C909.941 224.76 907.076 225.828 903.326 225.828C899.576 225.828 896.711 224.76 894.732 222.625C892.752 220.49 891.763 217.547 891.763 213.797Z" fill="white"/>
<path d="M1033.41 165.359C1033.41 184.214 1028.17 198.641 1017.7 208.641C1007.24 218.589 992.157 223.562 972.469 223.562H940.514V109.344H975.828C994.006 109.344 1008.15 114.24 1018.25 124.031C1028.36 133.823 1033.41 147.599 1033.41 165.359ZM1013.72 165.984C1013.72 138.641 1000.93 124.969 975.359 124.969H959.187V207.859H972.469C999.97 207.859 1013.72 193.901 1013.72 165.984Z" fill="white"/>
<path d="M1093.8 225.125C1080.36 225.125 1069.84 221.219 1062.24 213.406C1054.68 205.542 1050.91 194.734 1050.91 180.984C1050.91 166.87 1054.42 155.776 1061.46 147.703C1068.49 139.63 1078.15 135.594 1090.44 135.594C1101.85 135.594 1110.86 139.057 1117.47 145.984C1124.09 152.911 1127.4 162.443 1127.4 174.578V184.5H1069.82C1070.08 192.885 1072.34 199.344 1076.61 203.875C1080.88 208.354 1086.9 210.594 1094.66 210.594C1099.76 210.594 1104.5 210.125 1108.88 209.188C1113.31 208.198 1118.05 206.583 1123.1 204.344V219.266C1118.62 221.401 1114.09 222.911 1109.5 223.797C1104.92 224.682 1099.69 225.125 1093.8 225.125ZM1090.44 149.5C1084.61 149.5 1079.92 151.349 1076.38 155.047C1072.89 158.745 1070.81 164.135 1070.13 171.219H1109.35C1109.24 164.083 1107.53 158.693 1104.19 155.047C1100.86 151.349 1096.27 149.5 1090.44 149.5Z" fill="white"/>
<path d="M1206.3 198.953C1206.3 207.391 1203.23 213.875 1197.09 218.406C1190.94 222.885 1182.14 225.125 1170.68 225.125C1159.17 225.125 1149.92 223.38 1142.94 219.891V204.031C1153.1 208.719 1162.55 211.062 1171.3 211.062C1182.61 211.062 1188.26 207.651 1188.26 200.828C1188.26 198.641 1187.63 196.818 1186.38 195.359C1185.13 193.901 1183.07 192.391 1180.21 190.828C1177.35 189.266 1173.36 187.495 1168.26 185.516C1158.31 181.661 1151.56 177.807 1148.02 173.953C1144.53 170.099 1142.79 165.099 1142.79 158.953C1142.79 151.557 1145.76 145.828 1151.69 141.766C1157.68 137.651 1165.81 135.594 1176.07 135.594C1186.23 135.594 1195.84 137.651 1204.9 141.766L1198.96 155.594C1189.64 151.74 1181.8 149.812 1175.44 149.812C1165.76 149.812 1160.91 152.573 1160.91 158.094C1160.91 160.802 1162.16 163.094 1164.66 164.969C1167.21 166.844 1172.74 169.422 1181.23 172.703C1188.36 175.464 1193.54 177.99 1196.77 180.281C1200 182.573 1202.4 185.229 1203.96 188.25C1205.52 191.219 1206.3 194.786 1206.3 198.953Z" fill="white"/>
<path d="M1244.59 223.562H1226.23V137.156H1244.59V223.562ZM1225.13 114.266C1225.13 110.984 1226.02 108.458 1227.79 106.688C1229.61 104.917 1232.19 104.031 1235.52 104.031C1238.75 104.031 1241.25 104.917 1243.02 106.688C1244.85 108.458 1245.76 110.984 1245.76 114.266C1245.76 117.391 1244.85 119.865 1243.02 121.688C1241.25 123.458 1238.75 124.344 1235.52 124.344C1232.19 124.344 1229.61 123.458 1227.79 121.688C1226.02 119.865 1225.13 117.391 1225.13 114.266Z" fill="white"/>
<path d="M1343.89 137.156V147.234L1329.12 149.969C1330.48 151.792 1331.6 154.031 1332.48 156.688C1333.37 159.344 1333.81 162.156 1333.81 165.125C1333.81 174.031 1330.74 181.036 1324.59 186.141C1318.44 191.245 1309.98 193.797 1299.2 193.797C1296.44 193.797 1293.94 193.589 1291.7 193.172C1287.74 195.62 1285.76 198.484 1285.76 201.766C1285.76 203.745 1286.67 205.229 1288.49 206.219C1290.37 207.208 1293.78 207.703 1298.73 207.703H1313.81C1323.34 207.703 1330.58 209.734 1335.53 213.797C1340.48 217.859 1342.95 223.719 1342.95 231.375C1342.95 241.167 1338.91 248.719 1330.84 254.031C1322.77 259.344 1311.1 262 1295.84 262C1284.07 262 1275.08 259.917 1268.88 255.75C1262.69 251.583 1259.59 245.646 1259.59 237.938C1259.59 232.625 1261.25 228.146 1264.59 224.5C1267.97 220.906 1272.69 218.406 1278.73 217C1276.28 215.958 1274.25 214.292 1272.64 212C1271.07 209.656 1270.29 207.208 1270.29 204.656C1270.29 201.427 1271.2 198.693 1273.03 196.453C1274.85 194.214 1277.56 192 1281.15 189.812C1276.67 187.885 1273.03 184.76 1270.21 180.438C1267.45 176.062 1266.07 170.958 1266.07 165.125C1266.07 155.75 1269.02 148.484 1274.9 143.328C1280.84 138.172 1289.28 135.594 1300.21 135.594C1302.66 135.594 1305.21 135.776 1307.87 136.141C1310.58 136.453 1312.61 136.792 1313.96 137.156H1343.89ZM1275.99 237C1275.99 240.958 1277.77 244.005 1281.31 246.141C1284.9 248.276 1289.93 249.344 1296.39 249.344C1306.39 249.344 1313.83 247.911 1318.73 245.047C1323.63 242.182 1326.07 238.38 1326.07 233.641C1326.07 229.891 1324.72 227.208 1322.01 225.594C1319.36 224.031 1314.38 223.25 1307.09 223.25H1293.18C1287.92 223.25 1283.73 224.474 1280.6 226.922C1277.53 229.422 1275.99 232.781 1275.99 237ZM1283.89 165.125C1283.89 170.542 1285.27 174.708 1288.03 177.625C1290.84 180.542 1294.85 182 1300.06 182C1310.68 182 1316 176.323 1316 164.969C1316 159.344 1314.67 155.021 1312.01 152C1309.41 148.927 1305.42 147.391 1300.06 147.391C1294.75 147.391 1290.71 148.901 1287.95 151.922C1285.24 154.943 1283.89 159.344 1283.89 165.125Z" fill="white"/>
<path d="M1436 223.562H1417.56V170.438C1417.56 163.771 1416.21 158.797 1413.5 155.516C1410.84 152.234 1406.6 150.594 1400.76 150.594C1393 150.594 1387.33 152.885 1383.73 157.469C1380.14 162.052 1378.34 169.734 1378.34 180.516V223.562H1359.98V137.156H1374.36L1376.94 148.484H1377.87C1380.48 144.37 1384.18 141.193 1388.97 138.953C1393.76 136.714 1399.07 135.594 1404.91 135.594C1425.64 135.594 1436 146.141 1436 167.234V223.562Z" fill="white"/>
<path d="M361.3 150.8L305.5 80.4L298.4 71.5L291.4 80.4L157 249.9L44 174.7C41 172.7 37.1 172.7 34.1 174.7C34.1 174.7 34.1 174.7 34 174.7C34 174.7 33.9 174.8 33.8 174.8C33.6 174.9 33.3 175.1 32.9 175.4C32.2 175.9 31.1 176.6 29.7 177.5C27 179.3 23.3 181.7 19 184.5C13.2 188.3 6.5 192.7 0.5 196.6C0.2 191.7 0 186.9 0 182C0 81.5 81.5 0 182 0C271.9 0 346.5 65.1 361.3 150.8Z" fill="white"/>
<path d="M364 181.9C364 282.5 282.5 364 182 364C93.2 364 19.3 300.4 3.19995 216.3C10.5 211.5 20.5 204.9 28.9 199.5C32.8 197 36.3 194.7 38.9 193L153.9 269.5C157.8 272.1 163 271.3 165.9 267.6L298.4 100.5L361.1 179.6C362 180.6 362.9 181.4 364 181.9Z" fill="white"/>
</svg>
